<mxfile host="app.diagrams.net" agent="Mozilla/5.0 (Windows NT 10.0; Win64; x64) AppleWebKit/537.36 (KHTML, like Gecko) Chrome/135.0.0.0 Safari/537.36" version="26.2.14">
  <diagram name="第 1 页" id="RUm9nZfpx9MbE9Eg60P1">
    <mxGraphModel dx="655" dy="421" grid="1" gridSize="10" guides="1" tooltips="1" connect="1" arrows="1" fold="1" page="1" pageScale="1" pageWidth="827" pageHeight="1169" math="0" shadow="0">
      <root>
        <mxCell id="0" />
        <mxCell id="1" parent="0" />
        <mxCell id="SdhQP168fEgO3BezE4Rt-14" style="edgeStyle=orthogonalEdgeStyle;rounded=0;orthogonalLoop=1;jettySize=auto;html=1;exitX=1;exitY=0.5;exitDx=0;exitDy=0;entryX=0;entryY=0.5;entryDx=0;entryDy=0;" edge="1" parent="1" source="SdhQP168fEgO3BezE4Rt-1" target="SdhQP168fEgO3BezE4Rt-13">
          <mxGeometry relative="1" as="geometry" />
        </mxCell>
        <mxCell id="SdhQP168fEgO3BezE4Rt-20" style="edgeStyle=orthogonalEdgeStyle;rounded=0;orthogonalLoop=1;jettySize=auto;html=1;entryX=0.5;entryY=0;entryDx=0;entryDy=0;" edge="1" parent="1" source="SdhQP168fEgO3BezE4Rt-1" target="SdhQP168fEgO3BezE4Rt-16">
          <mxGeometry relative="1" as="geometry" />
        </mxCell>
        <mxCell id="SdhQP168fEgO3BezE4Rt-1" value="" style="rounded=1;whiteSpace=wrap;html=1;" vertex="1" parent="1">
          <mxGeometry x="100" y="150" width="160" height="70" as="geometry" />
        </mxCell>
        <mxCell id="SdhQP168fEgO3BezE4Rt-3" value="&lt;font style=&quot;font-size: 56px;&quot;&gt;.bb&lt;/font&gt;" style="rounded=1;whiteSpace=wrap;html=1;fillColor=#ffe6cc;strokeColor=#d79b00;" vertex="1" parent="1">
          <mxGeometry x="110" y="160" width="140" height="50" as="geometry" />
        </mxCell>
        <mxCell id="SdhQP168fEgO3BezE4Rt-10" value="&lt;font style=&quot;font-size: 23px;&quot;&gt;Layer&lt;/font&gt;" style="text;html=1;align=center;verticalAlign=middle;whiteSpace=wrap;rounded=0;" vertex="1" parent="1">
          <mxGeometry x="100" y="113" width="60" height="30" as="geometry" />
        </mxCell>
        <mxCell id="SdhQP168fEgO3BezE4Rt-13" value="&lt;font style=&quot;font-size: 56px;&quot;&gt;.ko&lt;/font&gt;" style="rounded=1;whiteSpace=wrap;html=1;fillColor=#dae8fc;strokeColor=#6c8ebf;" vertex="1" parent="1">
          <mxGeometry x="310" y="150" width="160" height="70" as="geometry" />
        </mxCell>
        <mxCell id="SdhQP168fEgO3BezE4Rt-15" value="&lt;font style=&quot;font-size: 14px;&quot;&gt;bitbake&lt;/font&gt;" style="text;html=1;align=center;verticalAlign=middle;whiteSpace=wrap;rounded=0;" vertex="1" parent="1">
          <mxGeometry x="255" y="160" width="60" height="29" as="geometry" />
        </mxCell>
        <mxCell id="SdhQP168fEgO3BezE4Rt-27" style="edgeStyle=orthogonalEdgeStyle;rounded=0;orthogonalLoop=1;jettySize=auto;html=1;exitX=1;exitY=0.5;exitDx=0;exitDy=0;entryX=0;entryY=0.5;entryDx=0;entryDy=0;" edge="1" parent="1" source="SdhQP168fEgO3BezE4Rt-16" target="SdhQP168fEgO3BezE4Rt-23">
          <mxGeometry relative="1" as="geometry" />
        </mxCell>
        <mxCell id="SdhQP168fEgO3BezE4Rt-16" value="" style="rounded=1;whiteSpace=wrap;html=1;" vertex="1" parent="1">
          <mxGeometry x="100" y="250" width="160" height="70" as="geometry" />
        </mxCell>
        <mxCell id="SdhQP168fEgO3BezE4Rt-21" value="&lt;span style=&quot;font-size: 14px;&quot;&gt;install&lt;/span&gt;" style="text;html=1;align=center;verticalAlign=middle;whiteSpace=wrap;rounded=0;" vertex="1" parent="1">
          <mxGeometry x="189" y="220" width="60" height="29" as="geometry" />
        </mxCell>
        <mxCell id="SdhQP168fEgO3BezE4Rt-22" value="&lt;font style=&quot;font-size: 56px;&quot;&gt;.bb&lt;/font&gt;" style="rounded=1;whiteSpace=wrap;html=1;fillColor=#fff2cc;strokeColor=#d6b656;" vertex="1" parent="1">
          <mxGeometry x="109" y="260" width="140" height="50" as="geometry" />
        </mxCell>
        <mxCell id="SdhQP168fEgO3BezE4Rt-23" value="&lt;font style=&quot;font-size: 56px;&quot;&gt;Image&lt;/font&gt;" style="rounded=1;whiteSpace=wrap;html=1;fillColor=#d5e8d4;strokeColor=#82b366;" vertex="1" parent="1">
          <mxGeometry x="310" y="250" width="160" height="70" as="geometry" />
        </mxCell>
      </root>
    </mxGraphModel>
  </diagram>
</mxfile>
